<svg width="500" height="500" viewBox="0 0 500 500" fill="none" xmlns="http://www.w3.org/2000/svg">
<path d="M71.3945 388L143.129 190.285L150.781 210.892L87.0162 388H71.3945Z" stroke="white" stroke-width="30"/>
<path d="M195.167 122L240.476 246.63H224.823L179.514 122H195.167Z" stroke="white" stroke-width="30"/>
<path d="M277.193 122.21L344.022 304.27H328.417L261.588 122.21H277.193Z" stroke="white" stroke-width="30"/>
<path d="M366.802 373.82L372.125 388H284.372L279.715 373.82H366.802Z" stroke="white" stroke-width="30"/>
<path d="M268.741 323.94H173.789L181.237 305.35H262.125L268.741 323.94Z" stroke="white" stroke-width="30"/>
<path d="M149.407 388L162.052 353.94H177.622L164.978 388H149.407Z" stroke="white" stroke-width="30"/>
<path d="M293.683 388H278.482L264.688 353.94H279.891L293.683 388Z" stroke="white" stroke-width="30"/>
<path d="M424.203 121.99L367.403 208.09L363.634 196.906L412.552 121.99H424.203Z" stroke="white" stroke-width="30"/>
</svg>
