<?xml version="1.0" encoding="utf-8"?>
<!-- Generator: Adobe Illustrator 23.0.3, SVG Export Plug-In . SVG Version: 6.00 Build 0)  -->
<svg version="1.1" id="Layer_1" xmlns="http://www.w3.org/2000/svg" xmlns:xlink="http://www.w3.org/1999/xlink" x="0px" y="0px"
	 viewBox="0 0 500 500" style="enable-background:new 0 0 500 500;" xml:space="preserve">
<path d="M166.12,209.11l-18.41-49.58c-1.62-4.36-7.8-4.34-9.39,0.03L52.43,396.29c-1.18,3.26,1.23,6.71,4.7,6.71h36.92
	c2.11,0,3.99-1.32,4.7-3.31l67.38-187.15C166.54,211.43,166.53,210.21,166.12,209.11z"/>
<path d="M254.75,261.63h-36.93c-2.1,0-3.98-1.32-4.7-3.29l-52.58-144.63c-1.19-3.26,1.23-6.71,4.7-6.71h36.93
	c2.1,0,3.98,1.32,4.7,3.29l52.58,144.63C260.64,258.18,258.22,261.63,254.75,261.63z"/>
<path d="M358.35,319.27h-36.92c-2.1,0-3.97-1.31-4.69-3.28l-74.17-202.06c-1.2-3.26,1.22-6.72,4.69-6.72h36.92
	c2.1,0,3.97,1.31,4.69,3.28l74.17,202.06C364.24,315.81,361.83,319.27,358.35,319.27z"/>
<path d="M276.94,403h109.62c3.49,0,5.91-3.49,4.68-6.76l-12.83-34.18c-0.73-1.95-2.6-3.24-4.68-3.24H259l13.4,40.8
	C273.07,401.64,274.89,403,276.94,403z"/>
<path d="M151.62,338.94H290l-16.11-45.27c-0.71-1.99-2.6-3.32-4.71-3.32h-94.71c-2.04,0-3.88,1.24-4.64,3.14L151.62,338.94z"/>
<path d="M199.19,338.94h-47.57l-21.28,57.32c-1.21,3.27,1.2,6.74,4.69,6.74h36.9c2.09,0,3.96-1.3,4.69-3.26L199.19,338.94z"/>
<path d="M290,338.94h-47.57l24.68,60.94c0.76,1.89,2.6,3.12,4.63,3.12h44.2L290,338.94z"/>
<path d="M359.73,232.29l-11.86-35.19c-0.49-1.45-0.29-3.05,0.55-4.33l54.53-83.51c0.92-1.41,2.5-2.27,4.19-2.27h34.33
	c4.53,0,7.25,5.03,4.78,8.82l-77.6,117.63C366.35,236.93,361.06,236.24,359.73,232.29z"/>
</svg>
