<svg width="500" height="500" viewBox="0 0 500 500" fill="none" xmlns="http://www.w3.org/2000/svg">
<path d="M165.651 209.284L165.651 209.285C166.02 210.274 166.029 211.371 165.661 212.367L165.66 212.371L98.2796 399.521L98.2791 399.522C97.6403 401.312 95.9493 402.5 94.05 402.5H57.13C54.008 402.5 51.8377 399.395 52.9001 396.46L138.79 159.731C140.221 155.798 145.783 155.78 147.241 159.704C147.241 159.704 147.241 159.704 147.241 159.704L165.651 209.284Z" fill="black" stroke="white"/>
<path d="M161.01 113.539L161.01 113.539L213.59 258.168L161.01 113.539ZM161.01 113.539C159.939 110.606 162.116 107.5 165.24 107.5M161.01 113.539L165.24 107.5M258.98 255.091L258.98 255.091L206.4 110.462L258.98 255.091ZM258.98 255.091C260.051 258.024 257.874 261.13 254.75 261.13H217.82M258.98 255.091L217.82 261.13M217.82 261.13C215.931 261.13 214.238 259.942 213.59 258.169L217.82 261.13ZM165.24 107.5H202.17M165.24 107.5H202.17M202.17 107.5C204.059 107.5 205.752 108.688 206.4 110.461L202.17 107.5Z" fill="black" stroke="white"/>
<path d="M317.21 315.818L317.209 315.818L243.039 113.758L243.039 113.757C241.96 110.824 244.137 107.71 247.26 107.71H284.18C286.07 107.71 287.752 108.889 288.4 110.662L288.401 110.662L362.571 312.722L362.571 312.723C363.651 315.656 361.482 318.77 358.35 318.77H321.43C319.54 318.77 317.858 317.591 317.21 315.818Z" fill="black" stroke="white"/>
<path d="M390.772 396.416L390.772 396.416C391.879 399.359 389.701 402.5 386.56 402.5H276.94C275.118 402.5 273.481 401.29 272.875 399.463C272.875 399.463 272.875 399.463 272.875 399.463L259.69 359.32H373.73C375.602 359.32 377.285 360.482 377.942 362.235L377.942 362.236L390.772 396.416Z" fill="black" stroke="white"/>
<path d="M170.294 293.676L170.294 293.676L152.359 338.44H289.291L273.419 293.838L170.294 293.676ZM170.294 293.676C170.978 291.966 172.634 290.85 174.47 290.85H269.18C271.079 290.85 272.78 292.047 273.419 293.838L170.294 293.676Z" fill="black" stroke="white"/>
<path d="M151.968 339.44L130.809 396.434L151.968 339.44ZM151.968 339.44H198.471L176.151 399.565L151.968 339.44ZM135.03 402.5C131.889 402.5 129.72 399.378 130.809 396.434L176.151 399.566C175.494 401.33 173.811 402.5 171.93 402.5H135.03Z" fill="black" stroke="white"/>
<path d="M267.574 399.693L267.573 399.692L243.172 339.44H289.663L315.198 402.5H271.74C269.912 402.5 268.257 401.392 267.574 399.693Z" fill="black" stroke="white"/>
<path d="M360.204 232.13L360.204 232.13L348.344 196.94L348.344 196.94C347.903 195.634 348.083 194.195 348.838 193.044L348.839 193.043L403.369 109.533L403.369 109.533C404.197 108.264 405.619 107.49 407.14 107.49H441.47C445.602 107.49 448.084 112.078 445.832 115.535C445.832 115.536 445.831 115.536 445.831 115.537L368.233 233.165L368.233 233.165C366.162 236.307 361.401 235.685 360.204 232.13Z" fill="black" stroke="white"/>
</svg>
