<svg width="500" height="500" viewBox="0 0 500 500" fill="none" xmlns="http://www.w3.org/2000/svg">
<path d="M166.12 209.11L147.71 159.53C146.09 155.17 139.91 155.19 138.32 159.56L52.43 396.29C51.25 399.55 53.66 403 57.13 403H94.05C96.16 403 98.04 401.68 98.75 399.69L166.13 212.54C166.54 211.43 166.53 210.21 166.12 209.11Z" fill="white"/>
<path d="M254.75 261.63H217.82C215.72 261.63 213.84 260.31 213.12 258.34L160.54 113.71C159.35 110.45 161.77 107 165.24 107H202.17C204.27 107 206.15 108.32 206.87 110.29L259.45 254.92C260.64 258.18 258.22 261.63 254.75 261.63Z" fill="white"/>
<path d="M358.35 319.27H321.43C319.33 319.27 317.46 317.96 316.74 315.99L242.57 113.93C241.37 110.67 243.79 107.21 247.26 107.21H284.18C286.28 107.21 288.15 108.52 288.87 110.49L363.04 312.55C364.24 315.81 361.83 319.27 358.35 319.27Z" fill="white"/>
<path d="M276.94 403H386.56C390.05 403 392.47 399.51 391.24 396.24L378.41 362.06C377.68 360.11 375.81 358.82 373.73 358.82H259L272.4 399.62C273.07 401.64 274.89 403 276.94 403Z" fill="white"/>
<path d="M151.62 338.94H290L273.89 293.67C273.18 291.68 271.29 290.35 269.18 290.35H174.47C172.43 290.35 170.59 291.59 169.83 293.49L151.62 338.94Z" fill="white"/>
<path d="M199.19 338.94H151.62L130.34 396.26C129.13 399.53 131.54 403 135.03 403H171.93C174.02 403 175.89 401.7 176.62 399.74L199.19 338.94Z" fill="white"/>
<path d="M290 338.94H242.43L267.11 399.88C267.87 401.77 269.71 403 271.74 403H315.94L290 338.94Z" fill="white"/>
<path d="M359.73 232.29L347.87 197.1C347.38 195.65 347.58 194.05 348.42 192.77L402.95 109.26C403.87 107.85 405.45 106.99 407.14 106.99H441.47C446 106.99 448.72 112.02 446.25 115.81L368.65 233.44C366.35 236.93 361.06 236.24 359.73 232.29Z" fill="white"/>
<rect x="0.5" y="0.5" width="499" height="499" stroke="white"/>
</svg>
